<svg width="41" height="41" viewBox="0 0 41 41" fill="none" xmlns="http://www.w3.org/2000/svg">
<path d="M20.5 0C9.19593 0 0 9.19593 0 20.5C0 31.8041 9.19593 41 20.5 41C31.8041 41 41 31.8041 41 20.5C41 9.19593 31.8041 0 20.5 0ZM26.8328 21.7078L18.2911 30.2494C17.958 30.5826 17.5207 30.75 17.0833 30.75C16.646 30.75 16.2086 30.5826 15.8755 30.2494C15.2076 29.5815 15.2076 28.5018 15.8755 27.8339L23.2094 20.5L15.8756 13.1661C15.2076 12.4982 15.2076 11.4185 15.8756 10.7506C16.5435 10.0826 17.6232 10.0826 18.2911 10.7506L26.8328 19.2923C27.5008 19.9602 27.5008 21.0398 26.8328 21.7078Z" fill="#264896"/>
</svg>
