<svg width="18" height="12" viewBox="0 0 18 12" fill="none" xmlns="http://www.w3.org/2000/svg">
<path d="M17.0769 0H0.923096C0.41537 0 0 0.41537 0 0.923061V11.0769C0 11.5846 0.41537 12 0.923096 12H17.0769C17.5846 12 18 11.5846 18 11.0769V0.923061C18 0.41537 17.5846 0 17.0769 0ZM16.7305 0.69226L9.53098 6.09232C9.40154 6.19083 9.20283 6.25246 8.99995 6.25154C8.7971 6.25246 8.59843 6.19083 8.46895 6.09232L1.26945 0.69226H16.7305ZM12.8847 6.44863L16.8078 11.2948C16.8118 11.2997 16.8166 11.3033 16.8208 11.3077H1.17921C1.18336 11.3031 1.18821 11.2997 1.19215 11.2948L5.11522 6.44863C5.23542 6.30002 5.21264 6.08216 5.06376 5.96168C4.91515 5.84148 4.69729 5.86426 4.57705 6.0129L0.692295 10.8118V1.12496L8.05379 6.6461C8.3305 6.85219 8.66716 6.94289 8.99991 6.9438C9.33221 6.9431 9.66915 6.8524 9.94604 6.6461L17.3075 1.12496V10.8117L13.4229 6.0129C13.3026 5.8643 13.0846 5.84145 12.9362 5.96168C12.7873 6.08188 12.7645 6.30002 12.8847 6.44863Z" fill="#264896"/>
</svg>
