<svg width="89" height="45" viewBox="0 0 89 45" fill="none" xmlns="http://www.w3.org/2000/svg">
<path d="M16.6875 25.958C11.5775 25.958 7.41675 30.1188 7.41675 35.2288C7.41675 40.3388 11.5775 44.4997 16.6875 44.4997C21.7976 44.4997 25.9583 40.339 25.9583 35.229C25.9583 30.1189 21.7976 25.958 16.6875 25.958ZM16.6875 40.7915C13.6207 40.7915 11.125 38.2958 11.125 35.229C11.125 32.1621 13.6207 29.6665 16.6875 29.6665C19.7544 29.6665 22.25 32.1621 22.25 35.229C22.25 38.2956 19.7544 40.7915 16.6875 40.7915Z" fill="black"/>
<path d="M72.3125 25.958C67.2025 25.958 63.0417 30.1188 63.0417 35.2288C63.0417 40.3388 67.2025 44.4997 72.3125 44.4997C77.4225 44.4997 81.5833 40.339 81.5833 35.229C81.5833 30.1189 77.4225 25.958 72.3125 25.958ZM72.3125 40.7915C69.2456 40.7915 66.75 38.2958 66.75 35.229C66.75 32.1621 69.2456 29.6665 72.3125 29.6665C75.3793 29.6665 77.875 32.1621 77.875 35.229C77.875 38.2956 75.3793 40.7915 72.3125 40.7915Z" fill="black"/>
<path d="M77.875 14.8333H74.7377C73.5919 14.8333 72.4683 14.4402 71.5708 13.7208L56.96 2.03205C55.321 0.723125 53.2629 0 51.1675 0H24.3638C21.2562 0 18.3748 1.54272 16.6505 4.12738L13.4946 8.86662C12.549 10.2795 10.9693 11.125 9.27078 11.125C4.16075 11.125 0 15.2857 0 20.3958V27.8125C0 32.9225 4.16075 37.0833 9.27078 37.0833C10.2943 37.0833 11.125 36.2525 11.125 35.229C11.125 34.2055 10.2943 33.375 9.27078 33.375C6.20393 33.375 3.70828 30.8793 3.70828 27.8125V20.3958C3.70828 17.3289 6.20393 14.8333 9.27078 14.8333C12.2153 14.8333 14.9445 13.3722 16.5799 10.9209L19.7358 6.18532C20.7704 4.6353 22.5022 3.7081 24.3638 3.7081H51.1675C52.4283 3.7081 53.6595 4.14198 54.646 4.9282L69.2568 16.6131C70.8031 17.8555 72.7537 18.5414 74.7414 18.5414H77.875C83.3151 18.5414 85.2917 24.0853 85.2917 27.8121C85.2917 31.4648 82.4957 33.3746 79.7292 33.3746C78.7057 33.3746 77.875 34.2055 77.875 35.229C77.875 36.2525 78.7057 37.0831 79.7292 37.0831C85.0136 37.0833 89 33.0969 89 27.8125C89 21.5194 85.1026 14.8333 77.875 14.8333Z" fill="black"/>
<path d="M64.8958 33.375H24.1042C23.0807 33.375 22.25 34.2055 22.25 35.229C22.25 36.2525 23.0807 37.0835 24.1042 37.0835H64.896C65.9194 37.0835 66.75 36.2525 66.75 35.229C66.75 34.2055 65.9193 33.375 64.8958 33.375Z" fill="black"/>
<path d="M61.1875 14.8332H44.5V9.27073C44.5 8.24723 43.6693 7.4165 42.6458 7.4165C41.6223 7.4165 40.7916 8.24723 40.7916 9.27073V16.6875C40.7916 17.711 41.6223 18.5417 42.6458 18.5417H61.1875C62.211 18.5417 63.0417 17.711 63.0417 16.6875C63.0417 15.664 62.211 14.8332 61.1875 14.8332Z" fill="black"/>
<path d="M35.2292 14.8333H23.3959L25.7655 10.1016C26.2216 9.18566 25.8508 8.07316 24.9348 7.61321C24.015 7.15708 22.9064 7.52421 22.4464 8.44393L18.7381 15.8607C18.4489 16.4317 18.4823 17.1178 18.8197 17.6629C19.1571 18.208 19.7542 18.5418 20.3958 18.5418H35.229C36.2525 18.5418 37.0833 17.7111 37.0833 16.6876C37.0833 15.6641 36.2527 14.8333 35.2292 14.8333Z" fill="black"/>
<path d="M50.0625 22.25H46.3542C45.3307 22.25 44.5 23.0807 44.5 24.1042C44.5 25.1277 45.3307 25.9585 46.3542 25.9585H50.0625C51.086 25.9585 51.9167 25.1277 51.9167 24.1042C51.9167 23.0807 51.086 22.25 50.0625 22.25Z" fill="black"/>
</svg>
