<svg width="69" height="69" viewBox="0 0 69 69" fill="none" xmlns="http://www.w3.org/2000/svg">
<path d="M28.9662 20.0779C32.9964 19.3165 37.1404 19.3948 41.1389 20.3079C41.5391 20.4011 41.9586 20.2738 42.2395 19.9739C42.5204 19.674 42.6199 19.2471 42.5005 18.854C42.3812 18.4609 42.0612 18.1612 41.661 18.068C37.3492 17.0818 32.88 16.9968 28.5338 17.8185C27.9203 17.9475 27.5232 18.5442 27.6411 19.1599C27.759 19.7756 28.3484 20.1834 28.9662 20.0767V20.0779Z" fill="#147987"/>
<path d="M14.95 26.4561C13.0446 26.4561 11.5 28.0005 11.5 29.9056C11.5 31.8107 13.0446 33.3551 14.95 33.3551C16.8554 33.3551 18.4 31.8107 18.4 29.9056C18.4 28.0005 16.8554 26.4561 14.95 26.4561ZM14.95 31.0554C14.3149 31.0554 13.8 30.5406 13.8 29.9056C13.8 29.2706 14.3149 28.7558 14.95 28.7558C15.5851 28.7558 16.1 29.2706 16.1 29.9056C16.1 30.5406 15.5851 31.0554 14.95 31.0554Z" fill="#147987"/>
<path d="M66.355 23.3318C66.0604 23.0442 65.6348 22.9356 65.2384 23.0469C64.842 23.1582 64.5352 23.4725 64.4334 23.8714C64.3316 24.2702 64.4504 24.6931 64.745 24.9807C65.3824 25.5716 65.9002 26.2798 66.2699 27.0665C66.5572 27.6978 66.704 28.3839 66.7 29.0775C66.7012 30.651 65.9807 32.1381 64.745 33.1123C62.0356 23.1467 52.7091 15.2507 40.6985 13.1879C43.4136 9.91548 43.1147 5.09601 40.0161 2.18401C36.9175 -0.728002 32.0882 -0.728002 28.9896 2.18401C25.891 5.09601 25.5922 9.91548 28.3072 13.1879C27.7644 13.2822 27.2216 13.3776 26.688 13.4972C22.1295 10.9236 16.5663 10.8801 11.968 13.3822C11.1858 13.8195 10.6263 14.5685 10.4289 15.4426C10.2314 16.3166 10.4147 17.2333 10.933 17.9643L12.6189 20.3284C9.50387 22.9229 7.02833 26.2 5.3843 29.9054H4.6C2.05949 29.9054 0 31.9646 0 34.5048V41.4038C0.00331727 43.9118 2.01276 45.9562 4.52065 46.0032C5.72655 49.7266 7.78073 53.1192 10.5213 55.9137L12.3349 66.1553C12.6281 67.8014 14.0598 69.0003 15.732 69H19.918C21.5906 69.0002 23.0224 67.8007 23.3151 66.1541L23.7141 63.9074C30.7391 66.0898 38.2609 66.0898 45.2858 63.9074L45.6849 66.1553C45.9781 67.8014 47.4097 69.0003 49.082 69H53.268C54.9409 69.0001 56.3729 67.8 56.6651 66.153L58.4786 55.9137C62.9369 51.4462 65.4742 45.4147 65.55 39.1041C65.5493 37.9065 65.4539 36.7108 65.2648 35.5281C67.5775 34.2041 69.003 31.7422 69 29.0775C69.0031 28.0606 68.7891 27.0546 68.3721 26.127C67.8856 25.0743 67.2007 24.1253 66.355 23.3318ZM34.5 2.30925C37.6756 2.30925 40.25 4.88326 40.25 8.05845C40.25 11.2336 37.6756 13.8077 34.5 13.8077C31.3243 13.8077 28.75 11.2336 28.75 8.05845C28.7538 4.88483 31.3259 2.31305 34.5 2.30925ZM56.5915 54.5534C56.4263 54.7194 56.3163 54.9321 56.2764 55.1628L54.4019 65.7505C54.3047 66.3004 53.8265 66.701 53.268 66.7003H49.082C48.5239 66.7011 48.0457 66.3011 47.9481 65.7517L47.3167 62.1872C47.2573 61.8529 47.0532 61.562 46.7591 61.3923C46.465 61.2227 46.111 61.1917 45.7918 61.3076C38.4869 63.8986 30.513 63.8986 23.2081 61.3076C22.889 61.1917 22.5349 61.2227 22.2408 61.3923C21.9467 61.562 21.7426 61.8529 21.6832 62.1872L21.0519 65.7517C20.9542 66.3011 20.4761 66.7011 19.918 66.7003H15.732C15.1742 66.7012 14.6963 66.3018 14.5981 65.7528L12.7236 55.1628C12.6837 54.9321 12.5736 54.7194 12.4085 54.5534C9.60677 51.7846 7.56857 48.3385 6.49175 44.5498C6.35489 44.0498 5.9004 43.7033 5.382 43.7035H4.6C3.32974 43.7035 2.3 42.6739 2.3 41.4038V34.5048C2.3 33.2347 3.32974 32.2051 4.6 32.2051H6.1525C6.62463 32.205 7.04873 31.9164 7.222 31.4773C8.84369 27.5143 11.4897 24.0536 14.889 21.4495C15.3735 21.0712 15.4749 20.3789 15.119 19.8777L12.8064 16.634C12.6689 16.4369 12.6204 16.1912 12.6726 15.9567C12.7249 15.7221 12.8731 15.5203 13.0812 15.4002C17.1018 13.2144 21.9813 13.3304 25.8934 15.7049C26.1529 15.8669 26.4667 15.9175 26.7639 15.8452C28.0754 15.538 29.4047 15.3126 30.7441 15.1702C33.0929 16.4182 35.9082 16.4182 38.257 15.1702C52.5274 16.7363 63.25 26.9653 63.25 39.1041C63.1671 44.933 60.772 50.4902 56.5915 54.5534Z" fill="#147987"/>
<path d="M28.75 36.8046C30.6554 36.8046 32.2 35.2602 32.2 33.3551C32.2 31.45 30.6554 29.9056 28.75 29.9056C26.8446 29.9056 25.3 31.45 25.3 33.3551C25.3 35.2602 26.8446 36.8046 28.75 36.8046ZM28.75 32.2053C29.3851 32.2053 29.9 32.7201 29.9 33.3551C29.9 33.9901 29.3851 34.5049 28.75 34.5049C28.1148 34.5049 27.6 33.9901 27.6 33.3551C27.6 32.7201 28.1148 32.2053 28.75 32.2053Z" fill="#147987"/>
<path d="M40.25 41.404C38.3446 41.404 36.8 42.9484 36.8 44.8535C36.8 46.7586 38.3446 48.303 40.25 48.303C42.1554 48.303 43.7 46.7586 43.7 44.8535C43.7 42.9484 42.1554 41.404 40.25 41.404ZM40.25 46.0034C39.6149 46.0034 39.1 45.4886 39.1 44.8535C39.1 44.2185 39.6149 43.7037 40.25 43.7037C40.8851 43.7037 41.4 44.2185 41.4 44.8535C41.4 45.4886 40.8851 46.0034 40.25 46.0034Z" fill="#147987"/>
<path d="M43.3918 30.2724C42.9595 29.8073 42.2321 29.7806 41.7668 30.2126L25.6668 45.1605C25.2013 45.593 25.1745 46.3209 25.607 46.7864C26.0396 47.2519 26.7676 47.2787 27.2331 46.8462L43.3331 31.8983C43.5567 31.6905 43.6885 31.4024 43.6995 31.0975C43.7105 30.7925 43.5998 30.4957 43.3918 30.2724Z" fill="#147987"/>
</svg>
