<svg width="67" height="69" viewBox="0 0 67 69" fill="none" xmlns="http://www.w3.org/2000/svg">
<path d="M20.7874 0.0545044C20.0136 -0.161251 19.209 0.282793 18.99 1.04636L0.055227 67.1701C-0.163389 67.9338 0.286542 68.7278 1.06023 68.9439C1.18913 68.9803 1.32241 68.9992 1.45636 69C2.10852 68.9996 2.6808 68.5716 2.8575 67.9521L21.7924 1.82839C22.011 1.06469 21.5611 0.270664 20.7874 0.0545044Z" fill="#147987"/>
<path d="M66.9448 67.1715L48.0099 1.04785C47.7912 0.28374 46.9861 -0.160708 46.2118 0.0553165C45.4376 0.271207 44.9873 1.06577 45.2061 1.82987L64.141 67.9534C64.3184 68.5728 64.8915 69.0004 65.5437 68.9999C65.6776 68.9995 65.8109 68.9811 65.9398 68.9453C66.7135 68.7293 67.1633 67.9352 66.9448 67.1715Z" fill="#147987"/>
<path d="M33.5 54.6252C32.6956 54.6252 32.0435 55.2689 32.0435 56.0628V67.5625C32.0435 68.3564 32.6956 69 33.5 69C34.3045 69 34.9566 68.3564 34.9566 67.5625V56.0628C34.9565 55.2689 34.3045 54.6252 33.5 54.6252Z" fill="#147987"/>
<path d="M33.5 31.6257C32.6956 31.6257 32.0435 32.2693 32.0435 33.0632V44.5629C32.0435 45.3568 32.6956 46.0004 33.5 46.0004C34.3045 46.0004 34.9566 45.3568 34.9566 44.5629V33.0632C34.9565 32.2693 34.3045 31.6257 33.5 31.6257Z" fill="#147987"/>
<path d="M33.5 11.5011C32.6956 11.5011 32.0435 12.1447 32.0435 12.9386V21.5635C32.0435 22.3573 32.6956 23.001 33.5 23.001C34.3045 23.001 34.9566 22.3573 34.9566 21.5635V12.9386C34.9565 12.1447 34.3045 11.5011 33.5 11.5011Z" fill="#147987"/>
<path d="M33.5 0.00139928C32.6956 0.00139928 32.0435 0.645027 32.0435 1.43891V4.31381C32.0435 5.1077 32.6956 5.75133 33.5 5.75133C34.3045 5.75133 34.9566 5.1077 34.9566 4.31381V1.43878C34.9565 0.644892 34.3045 0.00139928 33.5 0.00139928Z" fill="#147987"/>
</svg>
