<svg width="23" height="23" viewBox="0 0 23 23" fill="none" xmlns="http://www.w3.org/2000/svg">
<path d="M11.5 0C5.14854 0 0 5.14854 0 11.5C0 17.8515 5.14854 23 11.5 23C17.8515 23 23 17.8515 23 11.5C23 5.14854 17.8515 0 11.5 0ZM11.5 21.85C5.7841 21.85 1.15 17.2159 1.15 11.5C1.15 5.7841 5.7841 1.15 11.5 1.15C17.2159 1.15 21.85 5.7841 21.85 11.5C21.85 17.2159 17.2159 21.85 11.5 21.85Z" fill="#147987"/>
<path d="M11.5 5.17483C10.5475 5.17483 9.77503 5.94726 9.77503 6.89983C9.77503 7.8524 10.5475 8.62483 11.5 8.62483C12.4526 8.62483 13.225 7.8524 13.225 6.89983C13.225 5.94726 12.4526 5.17483 11.5 5.17483ZM11.5 7.47483C11.1826 7.47483 10.925 7.21724 10.925 6.89983C10.925 6.58241 11.1826 6.32483 11.5 6.32483C11.8174 6.32483 12.075 6.58241 12.075 6.89983C12.075 7.21724 11.8174 7.47483 11.5 7.47483Z" fill="#147987"/>
<path d="M12.075 16.6749V10.9249C12.3924 10.9249 12.65 10.6673 12.65 10.3499C12.65 10.0325 12.3924 9.77492 12.075 9.77492H10.925C10.6076 9.77492 10.35 10.0325 10.35 10.3499C10.35 10.6673 10.6076 10.9249 10.925 10.9249V16.6749C10.6076 16.6749 10.35 16.9325 10.35 17.2499C10.35 17.5673 10.6076 17.8249 10.925 17.8249H12.075C12.3924 17.8249 12.65 17.5673 12.65 17.2499C12.65 16.9325 12.3924 16.6749 12.075 16.6749Z" fill="#147987"/>
</svg>
