<svg width="25" height="20" viewBox="0 0 25 20" fill="none" xmlns="http://www.w3.org/2000/svg">
<path d="M24.1695 5.19043L14.2039 0.322165C13.3448 -0.107388 11.8843 -0.107388 11.0252 0.322165L0.83047 5.19043C0.114548 5.53408 0 6.0209 0 6.27864C0 6.53637 0.114548 6.99456 0.83047 7.36684L1.66094 7.76775V12.3497C1.14548 12.5501 0.773196 13.0656 0.773196 13.6383C0.773196 14.2111 1.14548 14.7265 1.6323 14.927L0.343643 19.022H3.95189L2.66323 14.927C3.17869 14.7265 3.52234 14.2111 3.52234 13.6383C3.52234 13.0369 3.15006 12.5501 2.63459 12.3497V8.25458L4.15235 8.99914V14.9556C4.15235 15.0415 4.18098 15.1274 4.23826 15.2133C4.38144 15.3852 7.04467 19.022 12.4857 19.022C17.9267 19.022 20.5899 15.3565 20.7045 15.2133C20.7617 15.1274 20.7904 15.0415 20.7904 14.9556V9.02778L24.1695 7.36684C24.8855 7.02319 25 6.53637 25 6.27864C24.9714 6.0209 24.8855 5.53408 24.1695 5.19043ZM19.874 14.8124C19.4158 15.3852 16.953 18.1343 12.4857 18.1343C8.01833 18.1343 5.55556 15.3852 5.09737 14.8124V9.40006L11.0252 12.2351C11.4548 12.4356 12.0275 12.5501 12.6002 12.5501C13.2016 12.5501 13.7743 12.4356 14.2039 12.2065L19.874 9.42869V14.8124ZM23.7686 6.565L20.3322 8.25458C20.189 8.25458 20.0745 8.31185 20.0172 8.4264L13.803 11.4333C13.2016 11.7483 12.0275 11.7483 11.3975 11.4333L3.75143 7.76775L12.543 6.73683C12.8007 6.70819 12.9725 6.47909 12.9439 6.25C12.9152 5.99227 12.6861 5.82045 12.457 5.84908L2.26231 7.05183L1.23139 6.565C0.973654 6.45046 0.91638 6.30727 0.91638 6.30727C0.91638 6.27864 0.973654 6.16409 1.23139 6.04954L11.4261 1.15263C11.7411 1.00945 12.1707 0.92354 12.6002 0.92354C13.0584 0.92354 13.5166 1.00945 13.803 1.15263L23.7686 6.0209C24.0263 6.13545 24.0836 6.25 24.0836 6.30727C24.0836 6.30727 23.9977 6.45046 23.7686 6.565Z" fill="#147987"/>
</svg>
