<svg width="19" height="24" viewBox="0 0 19 24" fill="none" xmlns="http://www.w3.org/2000/svg">
<path d="M13.5059 6.10856C12.3536 5.00016 10.8399 4.42887 9.23833 4.48746C6.16704 4.60953 3.66215 7.20719 3.65239 10.2834C3.6475 11.6457 4.12602 12.9738 5.00004 14.0187C6.25981 15.5324 6.95317 17.4416 6.95317 19.3996C6.95317 19.3996 6.82134 20.298 7.46099 20.298H11.4844C12.1387 20.298 11.9922 19.3996 11.9922 19.3996C11.9922 17.4855 12.6954 15.591 14.0284 13.9211C14.8536 12.881 15.293 11.631 15.293 10.3029C15.293 8.70621 14.6583 7.21207 13.5059 6.10856ZM13.2325 13.2863C11.7823 15.1027 11.0059 17.173 10.9766 19.2824H7.9688C7.9395 17.1291 7.16802 15.0343 5.7813 13.3693C5.06352 12.505 4.66801 11.4113 4.6729 10.2882C4.68266 7.74918 6.74809 5.60563 9.28228 5.50309C10.6055 5.45426 11.8555 5.92789 12.8028 6.84098C13.7549 7.75407 14.2774 8.98454 14.2774 10.3029C14.2725 11.4015 13.9161 12.4318 13.2325 13.2863Z" fill="#147987"/>
<path d="M16.1719 2.77335C15.9717 2.57316 15.6494 2.57316 15.4541 2.77335L14.2138 4.01358C14.0136 4.21378 14.0136 4.53605 14.2138 4.73136C14.414 4.92667 14.7363 4.93155 14.9316 4.73136L16.1719 3.49112C16.372 3.29581 16.372 2.97355 16.1719 2.77335Z" fill="#147987"/>
<path d="M11.5039 20.9913H7.44141C7.1582 20.9913 6.93359 21.2208 6.93359 21.4991C6.93359 21.7823 7.16309 22.0069 7.44141 22.0069H11.5039C11.7871 22.0069 12.0117 21.7774 12.0117 21.4991C12.0117 21.2208 11.7822 20.9913 11.5039 20.9913Z" fill="#147987"/>
<path d="M10.7372 22.9052H8.21284C7.92964 22.9052 7.70503 23.1347 7.70503 23.413C7.70503 23.6962 7.93452 23.9208 8.21284 23.9208H10.7372C11.0204 23.9208 11.2451 23.6913 11.2451 23.413C11.2451 23.1347 11.0156 22.9052 10.7372 22.9052Z" fill="#147987"/>
<path d="M9.47268 2.76855C9.75589 2.76855 9.9805 2.53906 9.9805 2.26074V0.507812C9.9805 0.224609 9.75101 0 9.47268 0C9.19436 0 8.96487 0.229492 8.96487 0.507812V2.26074C8.96487 2.54395 9.18948 2.76855 9.47268 2.76855Z" fill="#147987"/>
<path d="M4.73138 4.73614C4.93158 4.53595 4.93158 4.21368 4.73138 4.01837L3.49115 2.77814C3.29096 2.57794 2.96869 2.57794 2.77338 2.77814C2.57807 2.97833 2.57318 3.3006 2.77338 3.49591L4.01361 4.73614C4.2138 4.93146 4.53607 4.93146 4.73138 4.73614Z" fill="#147987"/>
<path d="M18.4374 8.96476H16.6845C16.4013 8.96476 16.1767 9.19425 16.1767 9.47257C16.1767 9.75089 16.4062 9.98038 16.6845 9.98038H18.4374C18.7206 9.98038 18.9453 9.75089 18.9453 9.47257C18.9453 9.19425 18.7158 8.96476 18.4374 8.96476Z" fill="#147987"/>
<path d="M2.26074 8.96476H0.507813C0.224609 8.96476 0 9.19425 0 9.47257C0 9.75089 0.229492 9.98038 0.507813 9.98038H2.26074C2.54395 9.98038 2.76855 9.75089 2.76855 9.47257C2.76855 9.19425 2.54395 8.96476 2.26074 8.96476Z" fill="#147987"/>
</svg>
