<svg width="23" height="23" viewBox="0 0 23 23" fill="none" xmlns="http://www.w3.org/2000/svg">
<path d="M11.5 10.35C10.2317 10.35 9.2 11.3817 9.2 12.65C9.2 13.9183 10.2317 14.95 11.5 14.95C12.7683 14.95 13.8 13.9183 13.8 12.65C13.8 11.3817 12.7683 10.35 11.5 10.35ZM11.5 14.1833C10.6545 14.1833 9.96667 13.4956 9.96667 12.65C9.96667 11.8044 10.6545 11.1167 11.5 11.1167C12.3455 11.1167 13.0333 11.8044 13.0333 12.65C13.0333 13.4956 12.3455 14.1833 11.5 14.1833Z" fill="#147987"/>
<path d="M11.5 0C5.1589 0 0 5.1589 0 11.5C0 17.8411 5.1589 23 11.5 23C17.8411 23 23 17.8411 23 11.5C23 5.1589 17.8411 0 11.5 0ZM11.5 22.2333C5.58152 22.2333 0.766667 17.4185 0.766667 11.5C0.766667 5.58152 5.58152 0.766667 11.5 0.766667C17.4185 0.766667 22.2333 5.58152 22.2333 11.5C22.2333 17.4185 17.4185 22.2333 11.5 22.2333Z" fill="#147987"/>
<path d="M11.5 2.3C6.42721 2.3 2.3 6.42721 2.3 11.5C2.3 16.5728 6.42721 20.7 11.5 20.7C16.5728 20.7 20.7 16.5728 20.7 11.5C20.7 6.42721 16.5728 2.3 11.5 2.3ZM11.5 3.06667C15.0834 3.06667 18.1499 5.3142 19.3693 8.47286L16.4972 9.43019C15.5121 9.75852 14.4471 9.7072 13.4975 9.28496C12.2281 8.72045 10.7717 8.72045 9.50269 9.28496L9.35745 9.34936C8.49419 9.73346 7.51549 9.81094 6.60167 9.56723L3.53012 8.74815C4.67379 5.44554 7.81334 3.06667 11.5 3.06667ZM3.06667 11.5C3.06667 11.4219 3.07045 11.3447 3.07261 11.2671L3.33883 11.3559C7.11831 12.6156 9.79115 15.9177 10.2666 19.8422C6.19912 19.2435 3.06667 15.7311 3.06667 11.5ZM11.5 19.9333C11.3478 19.9333 11.1966 19.9288 11.0463 19.9208C10.5933 15.6273 7.6982 12.0009 3.58139 10.6289L3.13068 10.4787C3.17175 10.1404 3.23217 9.80806 3.31219 9.48324L6.40397 10.3077C6.81835 10.4182 7.2438 10.4732 7.66887 10.4732C8.35394 10.4732 9.03732 10.3309 9.66862 10.0502L9.81386 9.98578C10.8852 9.50887 12.1142 9.50925 13.1871 9.98617C14.3111 10.4852 15.5726 10.5466 16.7397 10.1572L19.6118 9.19986C19.7294 9.61419 19.8161 10.0412 19.8692 10.4787L19.4185 10.6289C15.3017 12.0009 12.4066 15.6273 11.9536 19.9208C11.8034 19.9288 11.6522 19.9333 11.5 19.9333ZM12.7335 19.8422C13.2089 15.9177 15.8817 12.6156 19.6612 11.3559L19.9274 11.2671C19.9295 11.3447 19.9334 11.4219 19.9334 11.5C19.9333 15.7311 16.8009 19.2435 12.7335 19.8422Z" fill="#147987"/>
</svg>
