<svg width="24" height="19" viewBox="0 0 24 19" fill="none" xmlns="http://www.w3.org/2000/svg">
<path d="M23.0469 1.95313C22.9433 1.95313 22.8439 1.99428 22.7707 2.06754C22.6974 2.14079 22.6562 2.24015 22.6562 2.34375V16.4063H20.5352C18.0214 16.4065 15.5158 16.6919 13.0664 17.257C12.9128 17.2922 12.7521 17.2799 12.6056 17.2217C12.4591 17.1635 12.3337 17.0622 12.2461 16.9313C13.6408 16.0775 15.2441 15.6255 16.8793 15.625H21.4844C21.588 15.625 21.6873 15.5838 21.7606 15.5106C21.8338 15.4373 21.875 15.338 21.875 15.2344V12.5C21.875 12.3964 21.8338 12.297 21.7606 12.2238C21.6873 12.1505 21.588 12.1094 21.4844 12.1094C21.3808 12.1094 21.2814 12.1505 21.2082 12.2238C21.1349 12.297 21.0938 12.3964 21.0938 12.5V14.8438H16.8793C15.2075 14.8422 13.564 15.2745 12.1094 16.0984V5.46875C12.1094 5.36515 12.0682 5.26579 11.995 5.19254C11.9217 5.11928 11.8224 5.07813 11.7188 5.07813C11.6151 5.07813 11.5158 5.11928 11.4425 5.19254C11.3693 5.26579 11.3281 5.36515 11.3281 5.46875V16.098C9.87351 15.2742 8.22994 14.842 6.5582 14.8438H2.34375V0.78125H8.35938C9.14692 0.781768 9.90202 1.09498 10.4587 1.65204C11.0154 2.2091 11.3281 2.96441 11.3281 3.75195C11.3281 3.85555 11.3693 3.95491 11.4425 4.02817C11.5158 4.10142 11.6151 4.14258 11.7188 4.14258C11.8224 4.14258 11.9217 4.10142 11.995 4.02817C12.0682 3.95491 12.1094 3.85555 12.1094 3.75195C12.1094 2.96441 12.4221 2.2091 12.9788 1.65204C13.5355 1.09498 14.2906 0.781768 15.0781 0.78125H21.0938V10.9375C21.0938 11.0411 21.1349 11.1405 21.2082 11.2137C21.2814 11.287 21.3808 11.3281 21.4844 11.3281C21.588 11.3281 21.6873 11.287 21.7606 11.2137C21.8338 11.1405 21.875 11.0411 21.875 10.9375V0.390625C21.875 0.287025 21.8338 0.187668 21.7606 0.114411C21.6873 0.0411551 21.588 0 21.4844 0H15.0781C14.3799 0.000518486 13.6956 0.195701 13.1022 0.563626C12.5088 0.931551 12.0297 1.45764 11.7188 2.08281C11.4078 1.45764 10.9287 0.931551 10.3353 0.563626C9.74186 0.195701 9.0576 0.000518486 8.35938 0H1.95312C1.84952 0 1.75017 0.0411551 1.67691 0.114411C1.60366 0.187668 1.5625 0.287025 1.5625 0.390625V15.2344C1.5625 15.338 1.60366 15.4373 1.67691 15.5106C1.75017 15.5838 1.84952 15.625 1.95312 15.625H6.5582C8.19368 15.6254 9.79729 16.0774 11.1922 16.9313C11.1042 17.0619 10.9788 17.1629 10.8324 17.2211C10.6861 17.2792 10.5255 17.2918 10.3719 17.257C7.92223 16.6918 5.41635 16.4064 2.90234 16.4063H0.78125V2.34375C0.78125 2.24015 0.740095 2.14079 0.666839 2.06754C0.593582 1.99428 0.494225 1.95313 0.390625 1.95313C0.287025 1.95313 0.187668 1.99428 0.114411 2.06754C0.041155 2.14079 0 2.24015 0 2.34375V16.7969C0 16.9005 0.041155 16.9998 0.114411 17.0731C0.187668 17.1463 0.287025 17.1875 0.390625 17.1875H2.90234C5.35693 17.1879 7.80355 17.4666 10.1953 18.0184C10.4703 18.0818 10.7574 18.0693 11.0257 17.982C11.2941 17.8948 11.5337 17.7361 11.7188 17.523C11.9038 17.7362 12.1433 17.8949 12.4117 17.9821C12.6801 18.0694 12.9672 18.0819 13.2422 18.0184C15.634 17.4667 18.0806 17.188 20.5352 17.1875H23.0469C23.1505 17.1875 23.2498 17.1463 23.3231 17.0731C23.3963 16.9998 23.4375 16.9005 23.4375 16.7969V2.34375C23.4375 2.24015 23.3963 2.14079 23.3231 2.06754C23.2498 1.99428 23.1505 1.95313 23.0469 1.95313Z" fill="#147987"/>
<path d="M10.4387 5.31758C9.82315 4.90652 9.09954 4.68725 8.35938 4.6875H3.90625C3.80265 4.6875 3.70329 4.72865 3.63004 4.80191C3.55678 4.87517 3.51562 4.97452 3.51562 5.07812C3.51562 5.18172 3.55678 5.28108 3.63004 5.35434C3.70329 5.42759 3.80265 5.46875 3.90625 5.46875H8.35938C8.94589 5.46808 9.51938 5.6417 10.007 5.96757C10.0932 6.02507 10.1987 6.04597 10.3003 6.02568C10.4019 6.00539 10.4913 5.94557 10.5488 5.85937C10.6063 5.77318 10.6272 5.66767 10.6069 5.56606C10.5866 5.46446 10.5268 5.37507 10.4406 5.31758H10.4387Z" fill="#147987"/>
<path d="M19.5312 4.68747H15.0781C14.3373 4.68688 13.613 4.90617 12.9969 5.31755C12.9542 5.34602 12.9175 5.38262 12.889 5.42525C12.8605 5.46789 12.8406 5.51573 12.8306 5.56604C12.8205 5.61635 12.8205 5.66814 12.8304 5.71847C12.8404 5.7688 12.8602 5.81667 12.8887 5.85935C12.9171 5.90203 12.9537 5.93868 12.9964 5.96722C13.039 5.99575 13.0868 6.01561 13.1372 6.02566C13.1875 6.0357 13.2393 6.03574 13.2896 6.02577C13.3399 6.0158 13.3878 5.99602 13.4305 5.96755C13.9182 5.64178 14.4916 5.46817 15.0781 5.46872H19.5312C19.6348 5.46872 19.7342 5.42757 19.8074 5.35431C19.8807 5.28105 19.9219 5.1817 19.9219 5.0781C19.9219 4.9745 19.8807 4.87514 19.8074 4.80188C19.7342 4.72863 19.6348 4.68747 19.5312 4.68747Z" fill="#147987"/>
<path d="M10.4387 8.79178C9.82315 8.38072 9.09954 8.16145 8.35938 8.1617H3.90625C3.80265 8.1617 3.70329 8.20286 3.63004 8.27611C3.55678 8.34937 3.51562 8.44872 3.51562 8.55232C3.51562 8.65592 3.55678 8.75528 3.63004 8.82854C3.70329 8.90179 3.80265 8.94295 3.90625 8.94295H8.35938C8.94589 8.94228 9.51938 9.1159 10.007 9.44178C10.0497 9.47025 10.0976 9.49003 10.1479 9.5C10.1982 9.50997 10.25 9.50993 10.3003 9.49988C10.3506 9.48984 10.3985 9.46998 10.4411 9.44144C10.4838 9.41291 10.5204 9.37625 10.5488 9.33357C10.5773 9.29089 10.5971 9.24302 10.6071 9.1927C10.617 9.14237 10.617 9.09057 10.6069 9.04026C10.5969 8.98995 10.577 8.94212 10.5485 8.89948C10.52 8.85684 10.4833 8.82025 10.4406 8.79178H10.4387Z" fill="#147987"/>
<path d="M19.5312 8.16167H15.0781C14.3373 8.16108 13.613 8.38037 12.9969 8.79175C12.9107 8.84925 12.8509 8.93863 12.8306 9.04024C12.8103 9.14184 12.8312 9.24735 12.8887 9.33354C12.9462 9.41974 13.0356 9.47956 13.1372 9.49986C13.2388 9.52015 13.3443 9.49924 13.4305 9.44175C13.9182 9.11598 14.4916 8.94236 15.0781 8.94292H19.5312C19.6348 8.94292 19.7342 8.90176 19.8075 8.82851C19.8807 8.75525 19.9219 8.65589 19.9219 8.55229C19.9219 8.4487 19.8807 8.34934 19.8075 8.27608C19.7342 8.20283 19.6348 8.16167 19.5312 8.16167Z" fill="#147987"/>
<path d="M8.35938 11.5H3.90625C3.80265 11.5 3.70329 11.5411 3.63004 11.6144C3.55678 11.6876 3.51562 11.787 3.51562 11.8906C3.51562 11.9942 3.55678 12.0935 3.63004 12.1668C3.70329 12.2401 3.80265 12.2812 3.90625 12.2812H8.35938C8.94589 12.2805 9.51938 12.4542 10.007 12.78C10.0497 12.8085 10.0976 12.8283 10.1479 12.8383C10.1982 12.8482 10.25 12.8482 10.3003 12.8381C10.3506 12.8281 10.3985 12.8082 10.4411 12.7797C10.4838 12.7512 10.5204 12.7145 10.5488 12.6718C10.5773 12.6292 10.5971 12.5813 10.6071 12.531C10.617 12.4806 10.617 12.4288 10.6069 12.3785C10.5969 12.3282 10.577 12.2804 10.5485 12.2377C10.52 12.1951 10.4833 12.1585 10.4406 12.13C9.82455 11.7186 9.1002 11.4993 8.35938 11.5Z" fill="#147987"/>
<path d="M19.5312 11.5H15.0781C14.3373 11.4994 13.613 11.7187 12.9969 12.13C12.9542 12.1585 12.9175 12.1951 12.889 12.2377C12.8605 12.2804 12.8406 12.3282 12.8306 12.3785C12.8205 12.4288 12.8205 12.4806 12.8304 12.531C12.8404 12.5813 12.8602 12.6292 12.8887 12.6718C12.9171 12.7145 12.9537 12.7512 12.9964 12.7797C13.039 12.8082 13.0868 12.8281 13.1372 12.8381C13.1875 12.8482 13.2393 12.8482 13.2896 12.8383C13.3399 12.8283 13.3878 12.8085 13.4305 12.78C13.9182 12.4543 14.4916 12.2807 15.0781 12.2812H19.5312C19.6348 12.2812 19.7342 12.2401 19.8074 12.1668C19.8807 12.0935 19.9219 11.9942 19.9219 11.8906C19.9219 11.787 19.8807 11.6876 19.8074 11.6144C19.7342 11.5411 19.6348 11.5 19.5312 11.5Z" fill="#147987"/>
</svg>
