<svg width="23" height="40" viewBox="0 0 23 40" fill="none" xmlns="http://www.w3.org/2000/svg">
<path d="M8.31071 6.24479C7.56425 6.24479 6.87029 6.03933 6.26685 5.69321C6.26433 5.75002 6.24946 5.80202 6.24946 5.85883C6.24946 7.89598 7.91726 9.5469 9.97601 9.5469C12.0348 9.5469 13.7041 7.89598 13.7041 5.85883C13.7041 5.80202 13.6893 5.74928 13.6866 5.69196C13.0826 6.03892 12.3878 6.24487 11.6397 6.24487L8.31071 6.24479Z" fill="#264896"/>
<path d="M14.4945 23.7096C-2.05832 23.7096 21.638 23.7096 5.45828 23.7096C5.45828 23.7096 5.45416 23.5942 5.45416 38.1062C5.45416 39.1517 6.30978 40 7.36633 40C8.42389 40 9.27917 39.1517 9.27917 38.1062L9.27919 26.8222H10.6738V38.1062C10.6738 39.1517 11.5296 40 12.5854 40C13.643 40 14.4987 39.1517 14.4987 38.1062C14.4987 21.0902 14.4945 25.0346 14.4945 23.7096Z" fill="#264896"/>
<path d="M5.26458 1.78635H14.6861L15.2113 1.07098C15.3636 0.866358 15.3841 0.594265 15.2682 0.368742C15.1519 0.141989 14.9178 0 14.6616 0H5.29021C5.03399 0 4.7993 0.142067 4.68248 0.368742C4.56676 0.594168 4.58845 0.865519 4.73887 1.07098L5.26458 1.78635Z" fill="#264896"/>
<path d="M14.2175 3.12202H5.73181C6.8154 6.0169 13.5824 4.8238 14.2175 3.12202Z" fill="#264896"/>
<path d="M20.0497 14.8161L17.6355 15.6778L14.5335 10.9612C14.1712 10.4103 13.5327 10.2699 12.9078 10.2699C12.7078 10.2699 7.23352 10.2699 7.06058 10.2699C6.39705 10.2699 5.74832 10.5384 5.4584 11.1674L0.145031 22.6939C-0.221784 23.4862 0.131248 24.4225 0.933019 24.7846C1.74007 25.1472 2.68184 24.79 3.04402 24.0036L5.4583 18.7665V22.3732H14.4945V16.6873L15.6519 18.4463C15.9538 18.9037 16.4605 19.1632 16.9882 19.1632C17.4237 19.1632 19.5214 18.359 19.9727 18.199C20.1696 18.3705 20.3674 18.461 20.6302 18.461C21.1149 18.461 21.5448 18.1143 21.6258 17.6248L21.6283 17.6074L21.9465 17.4947C22.7735 17.1993 23.2033 16.2952 22.9056 15.4749C22.7641 15.0869 22.4773 14.7968 22.135 14.62L20.0497 14.8161Z" fill="#264896"/>
<path fill-rule="evenodd" clip-rule="evenodd" d="M20.7258 4.18211C20.1089 4.18211 19.6042 4.63021 19.6042 5.43993V5.88807H21.8474V5.43993C21.8474 4.63003 21.3427 4.18211 20.7258 4.18211ZM19.6042 7.42462V8.96114H21.8474V7.42462H19.6042ZM19.6042 10.4977V12.1196H21.8474V10.4977H19.6042ZM19.6042 13.6561V15.0433C19.6042 15.8532 20.1089 16.5158 20.7258 16.5158C21.3427 16.5158 21.8474 15.8532 21.8474 15.0433V13.6561H19.6042Z" fill="#264896"/>
</svg>
