<svg width="14" height="14" viewBox="0 0 14 14" fill="none" xmlns="http://www.w3.org/2000/svg">
<g clip-path="url(#clip0)">
<path d="M13.2735 2.78149L9.21216 7.00006L13.2735 11.2186C13.3469 11.0582 13.3914 10.8808 13.3914 10.6915V3.30865C13.3914 3.11924 13.3469 2.94192 13.2735 2.78149Z" fill="white"/>
<path d="M12.2145 2.07812H1.17709C0.995917 2.07812 0.826302 2.12469 0.672852 2.20145L5.86363 7.60083C6.3226 8.08065 7.06895 8.08065 7.52792 7.60083L12.7187 2.20145C12.5652 2.12469 12.3956 2.07812 12.2145 2.07812Z" fill="white"/>
<path d="M0.117959 2.78149C0.0445418 2.94192 0 3.11924 0 3.30865V10.6915C0 10.8809 0.0445418 11.0582 0.117959 11.2186L4.17926 7.00006L0.117959 2.78149Z" fill="white"/>
<path d="M8.65739 7.58008L8.08269 8.1809C7.31795 8.98041 6.07357 8.98041 5.30883 8.1809L4.73416 7.58008L0.672852 11.7986C0.826302 11.8754 0.995917 11.922 1.17709 11.922H12.2145C12.3956 11.922 12.5652 11.8754 12.7187 11.7986L8.65739 7.58008Z" fill="white"/>
</g>
<defs>
<clipPath id="clip0">
<rect width="13.3913" height="14" fill="white"/>
</clipPath>
</defs>
</svg>
