<svg width="62" height="69" viewBox="0 0 62 69" fill="none" xmlns="http://www.w3.org/2000/svg">
<path d="M49.1683 33.8874H53.9741C55.0605 33.8874 55.9445 33.0021 55.9445 31.914V27.101C55.9445 26.0129 55.0605 25.1276 53.9741 25.1276H49.1683C48.0818 25.1276 47.1978 26.0129 47.1978 27.101V31.914C47.1978 33.0021 48.0818 33.8874 49.1683 33.8874ZM49.2163 27.1491H53.926V31.8659H49.2163V27.1491ZM49.1683 46.6901H53.9741C55.0605 46.6901 55.9445 45.8048 55.9445 44.7167V39.9037C55.9445 38.8156 55.0605 37.9303 53.9741 37.9303H49.1683C48.0818 37.9303 47.1978 38.8156 47.1978 39.9037V44.7167C47.1978 45.8048 48.0818 46.6901 49.1683 46.6901ZM49.2163 39.9518H53.926V44.6686H49.2163V39.9518ZM35.4541 33.8874H40.2599C41.3463 33.8874 42.2303 33.0021 42.2303 31.914V27.101C42.2303 26.0129 41.3463 25.1276 40.2599 25.1276H35.4541C34.3676 25.1276 33.4836 26.0129 33.4836 27.101V31.914C33.4836 33.0021 34.3676 33.8874 35.4541 33.8874ZM35.5021 27.1491H40.2118V31.8659H35.5021V27.1491ZM12.8315 50.1328H8.02565C6.93919 50.1328 6.05524 51.0181 6.05524 52.1062V56.9192C6.05524 58.0073 6.93919 58.8926 8.02565 58.8926H12.8315C13.9179 58.8926 14.8019 58.0073 14.8019 56.9192V52.1062C14.8019 51.0181 13.9179 50.1328 12.8315 50.1328ZM12.7834 56.8711H8.07369V52.1543H12.7834V56.8711ZM12.8315 25.1276H8.02565C6.93919 25.1276 6.05524 26.0129 6.05524 27.101V31.914C6.05524 33.0021 6.93919 33.8874 8.02565 33.8874H12.8315C13.9179 33.8874 14.8019 33.0021 14.8019 31.914V27.101C14.8019 26.0127 13.9179 25.1276 12.8315 25.1276ZM12.7834 31.8659H8.07369V27.1491H12.7834V31.8659ZM35.4541 46.39H40.2599C41.3463 46.39 42.2303 45.5047 42.2303 44.4166V39.6036C42.2303 38.5155 41.3463 37.6302 40.2599 37.6302H35.4541C34.3676 37.6302 33.4836 38.5155 33.4836 39.6036V44.4166C33.4836 45.5047 34.3676 46.39 35.4541 46.39ZM35.5021 39.6517H40.2118V44.3685H35.5021V39.6517ZM56.9469 4.61896H52.6319V3.0736C52.6319 1.37879 51.2552 0 49.5629 0H49.0995C47.4074 0 46.0306 1.37879 46.0306 3.0736V4.61896H15.9691V3.0736C15.9691 1.37879 14.5924 0 12.9001 0H12.4367C10.7444 0 9.36766 1.37879 9.36766 3.0736V4.61896H5.05287C2.26673 4.61896 0 6.88908 0 9.67941V63.9463C0 66.733 2.26363 69 5.04614 69H56.9539C59.7364 69 62 66.733 62 63.9463V9.67941C61.9999 6.88908 59.7331 4.61896 56.9469 4.61896ZM48.0491 3.0736C48.0491 2.49343 48.5203 2.02148 49.0996 2.02148H49.5631C50.1424 2.02148 50.6136 2.49343 50.6136 3.0736V4.61896H48.0491V3.0736ZM11.3862 3.0736C11.3862 2.49343 11.8575 2.02148 12.4368 2.02148H12.9002C13.4795 2.02148 13.9508 2.49343 13.9508 3.0736V4.61896H11.3864L11.3862 3.0736ZM59.9814 63.9463C59.9814 65.6183 58.6233 66.9785 56.9537 66.9785H5.04601C3.37648 66.9785 2.01832 65.6183 2.01832 63.9463V63.94C2.86392 64.5781 3.915 64.957 5.05287 64.957H45.9714C47.3211 64.957 48.59 64.4306 49.5444 63.4747L59.9814 53.0221V63.9463ZM48.5145 61.6473C48.5937 61.3202 48.6367 60.9792 48.6367 60.6281V53.8812C48.6367 52.609 49.6703 51.5739 50.9407 51.5739H57.6774C58.0279 51.5739 58.3685 51.5307 58.6951 51.4515L48.5145 61.6473ZM59.9814 19.0631H16.9783C16.421 19.0631 15.9691 19.5157 15.9691 20.0739C15.9691 20.6321 16.421 21.0846 16.9783 21.0846H59.9814V47.2451C59.9814 48.5174 58.9478 49.5525 57.6774 49.5525H50.9407C48.5573 49.5525 46.6183 51.4945 46.6183 53.8813V60.6282C46.6183 61.9005 45.5847 62.9357 44.3144 62.9357H5.05287C3.3797 62.9357 2.01846 61.5724 2.01846 59.8966V21.0846H12.9414C13.4988 21.0846 13.9506 20.6321 13.9506 20.0739C13.9506 19.5157 13.4988 19.0631 12.9414 19.0631H2.01832V9.67941C2.01832 8.00373 3.37957 6.64044 5.05274 6.64044H9.36766V9.61229C9.36766 11.3071 10.7444 12.6859 12.4367 12.6859C12.994 12.6859 13.4459 12.2333 13.4459 11.6751C13.4459 11.117 12.994 10.6644 12.4367 10.6644C11.8574 10.6644 11.3861 10.1925 11.3861 9.61229V6.64044H46.0306V9.61229C46.0306 11.3071 47.4074 12.6859 49.0996 12.6859C49.657 12.6859 50.1089 12.2333 50.1089 11.6751C50.1089 11.117 49.657 10.6644 49.0996 10.6644C48.5203 10.6644 48.0491 10.1925 48.0491 9.61229V6.64044H56.947C58.6202 6.64044 59.9814 8.00373 59.9814 9.67941V19.0631ZM12.8315 37.6302H8.02565C6.93919 37.6302 6.05524 38.5155 6.05524 39.6036V44.4166C6.05524 45.5047 6.93919 46.39 8.02565 46.39H12.8315C13.9179 46.39 14.8019 45.5047 14.8019 44.4166V39.6036C14.8019 38.5153 13.9179 37.6302 12.8315 37.6302ZM12.7834 44.3685H8.07369V39.6517H12.7834V44.3685ZM21.7399 33.8874H26.5457C27.6321 33.8874 28.5161 33.0021 28.5161 31.914V27.101C28.5161 26.0129 27.6321 25.1276 26.5457 25.1276H21.7399C20.6534 25.1276 19.7694 26.0129 19.7694 27.101V31.914C19.7694 33.0021 20.6534 33.8874 21.7399 33.8874ZM21.7879 27.1491H26.4976V31.8659H21.7879V27.1491ZM35.5009 56.8711C35.4759 56.3351 35.0341 55.9085 34.4927 55.9085C33.9354 55.9085 33.4835 56.361 33.4835 56.9192C33.4835 58.0073 34.3675 58.8926 35.4539 58.8926H40.2597C41.3462 58.8926 42.2302 58.0073 42.2302 56.9192V52.1062C42.2302 51.0181 41.3462 50.1328 40.2597 50.1328H35.4539C34.3675 50.1328 33.4835 51.0181 33.4835 52.1062V53.4943C33.4835 54.0525 33.9354 54.505 34.4927 54.505C35.0501 54.505 35.502 54.0525 35.502 53.4943V52.1543H40.2117V56.8711H35.5009ZM21.7399 46.39H26.5457C27.6321 46.39 28.5161 45.5047 28.5161 44.4166V39.6036C28.5161 38.5155 27.6321 37.6302 26.5457 37.6302H21.7399C20.6534 37.6302 19.7694 38.5155 19.7694 39.6036V44.4166C19.7694 45.5047 20.6534 46.39 21.7399 46.39ZM21.7879 39.6517H26.4976V44.3685H21.7879V39.6517ZM21.7399 58.8926H26.5457C27.6321 58.8926 28.5161 58.0073 28.5161 56.9192V52.1062C28.5161 51.0181 27.6321 50.1328 26.5457 50.1328H21.7399C20.6534 50.1328 19.7694 51.0181 19.7694 52.1062V56.9192C19.7694 58.0073 20.6534 58.8926 21.7399 58.8926ZM21.7879 52.1543H26.4976V56.8711H21.7879V52.1543Z" fill="#147987"/>
</svg>
