<svg width="61" height="61" viewBox="0 0 61 61" fill="none" xmlns="http://www.w3.org/2000/svg">
<path fill-rule="evenodd" clip-rule="evenodd" d="M30.4863 0L32.2973 2.08079L34.3279 0.246408L35.8372 2.54623L38.0873 0.958258L39.3221 3.42235L41.7368 2.16292L42.6424 4.73654L45.2218 3.77828L45.798 6.4614L48.4597 5.83169L48.6793 8.56957L51.4233 8.2684L51.2861 11.0063L54.0576 11.061L53.5911 13.7715L56.3077 14.1548L55.5119 16.7832L58.1462 17.5224L57.0211 20.0139L59.5731 21.0817L58.1462 23.4363L60.5335 24.7778L58.8048 26.9408L61 28.5835L59.0243 30.5L61 32.4165L58.8048 34.0592L60.5335 36.2222L58.1462 37.5911L59.5731 39.9183L57.0211 40.9861L58.1462 43.4776L55.5119 44.2168L56.3077 46.8451L53.5911 47.2285L54.0576 49.939L51.2861 49.9937L51.4233 52.7316L48.6793 52.4304L48.4597 55.1683L45.798 54.5386L45.2218 57.2217L42.6424 56.2635L41.7368 58.8644L39.3221 57.5776L38.0873 60.0417L35.8372 58.4811L34.3279 60.7536L32.2973 58.9192L30.4863 61L28.7027 58.9192L26.6721 60.7536L25.1628 58.4811L22.8853 60.0417L21.6779 57.5776L19.2357 58.8644L18.3576 56.2635L15.7782 57.2217L15.202 54.5386L12.5403 55.1683L12.3207 52.4304L9.5767 52.7316L9.68646 49.9937L6.94242 49.939L7.40891 47.2285L4.69231 46.8451L5.48808 44.2168L2.8538 43.4776L3.97886 40.9861L1.4269 39.9183L2.8538 37.5911L0.466487 36.2222L2.19523 34.0592L0 32.4165L1.97571 30.5L0 28.5835L2.19523 26.9408L0.466487 24.7778L2.8538 23.4363L1.4269 21.0817L3.97886 20.0139L2.8538 17.5224L5.48808 16.7832L4.69231 14.1548L7.40891 13.7715L6.94242 11.061L9.68646 11.0063L9.5767 8.2684L12.3207 8.56957L12.5403 5.83169L15.202 6.4614L15.7782 3.77828L18.3576 4.73654L19.2357 2.16292L21.6779 3.42235L22.8853 0.958258L25.1628 2.54623L26.6721 0.246408L28.7027 2.08079L30.4863 0Z" fill="#69B44F"/>
</svg>
