<svg width="69" height="69" viewBox="0 0 69 69" fill="none" xmlns="http://www.w3.org/2000/svg">
<path d="M67.9219 0H24.7969C24.2007 0 23.7188 0.481922 23.7188 1.07812V21.5614L17.25 21.5582V20.3873C19.8224 18.8941 21.5593 16.119 21.5625 12.9397C21.5625 12.9386 21.5625 12.9386 21.5625 12.9375V9.16298C21.5625 6.79434 20.6504 4.64025 19.1701 3.0112C19.1453 2.97994 19.1173 2.95083 19.0893 2.9228C17.415 1.1288 15.0388 0 12.3974 0C7.34527 0 3.23438 4.11089 3.23438 9.16298V9.69773C3.23438 9.74409 3.25594 9.7829 3.26025 9.82711C3.26887 9.89934 3.27966 9.96834 3.3023 10.0352C3.32494 10.1031 3.35512 10.1613 3.38855 10.2217C3.42197 10.281 3.45647 10.336 3.50067 10.3877C3.54595 10.4416 3.5977 10.4858 3.65377 10.53C3.70659 10.5732 3.75834 10.6098 3.81872 10.6411C3.88448 10.6756 3.95241 10.6972 4.02356 10.7176C4.06561 10.7295 4.09903 10.7543 4.14323 10.7618C4.20253 10.7715 4.2532 10.7737 4.3125 10.7823V12.9397C4.31573 16.119 6.05259 18.8941 8.625 20.3873V21.5647H5.40141C5.39709 21.5647 5.39494 21.5625 5.39062 21.5625C2.41823 21.5625 0 23.9807 0 26.9531V33.4219C0 34.0181 0.481922 34.5 1.07812 34.5C1.67433 34.5 2.15625 34.0181 2.15625 33.4219V26.9531C2.15625 25.1721 3.60309 23.7231 5.38308 23.7198C5.38631 23.7198 5.38847 23.7209 5.39062 23.7209H9.26433L10.019 24.4756C10.0298 24.4874 10.0449 24.4907 10.0568 24.5004C10.1376 24.5748 10.2292 24.6341 10.3284 24.6804C10.3597 24.6955 10.3899 24.7095 10.4212 24.7203C10.5354 24.7613 10.6551 24.7893 10.7791 24.7904H10.7823C10.7845 24.7904 10.7856 24.7893 10.7877 24.7893C10.9387 24.7882 11.0853 24.7494 11.2254 24.6847C11.2384 24.6794 11.2502 24.6826 11.2632 24.6761L12.9375 23.8406L14.6118 24.6772C14.6248 24.6837 14.6366 24.6804 14.6496 24.6858C14.7897 24.7505 14.9374 24.7893 15.0873 24.7904C15.0894 24.7904 15.0905 24.7915 15.0927 24.7915H15.0959C15.2199 24.7904 15.3396 24.7624 15.4538 24.7214C15.4851 24.7106 15.5153 24.6966 15.5466 24.6815C15.6457 24.6352 15.7374 24.5759 15.8193 24.5004C15.8301 24.4907 15.8452 24.4864 15.856 24.4767L16.6182 23.7144L24.7936 23.7187C24.7947 23.7177 24.7958 23.7187 24.7969 23.7187C24.798 23.7187 24.799 23.7177 24.8001 23.7177L25.8739 23.7187H25.875C28.2533 23.7187 30.1875 21.7846 30.1875 19.4062C30.1875 18.8111 30.6705 18.3281 31.2656 18.3281C31.8607 18.3281 32.3438 18.8111 32.3438 19.4062C32.3438 22.9738 29.4425 25.875 25.875 25.875H20.4844C19.8882 25.875 19.4062 26.3569 19.4062 26.9531V33.4219C19.4062 34.0181 19.8882 34.5 20.4844 34.5C21.0806 34.5 21.5625 34.0181 21.5625 33.4219V28.0312H23.7188V33.4219C23.7188 34.0181 24.2007 34.5 24.7969 34.5H67.9219C68.5181 34.5 69 34.0181 69 33.4219V1.07812C69 0.481922 68.5181 0 67.9219 0ZM18.5103 5.74425C18.8672 6.38142 19.1292 7.07789 19.2736 7.81748C18.7809 7.44337 18.3152 7.20511 17.8591 7.06926L18.5103 5.74425ZM12.3974 2.15625C14.1666 2.15625 15.7784 2.8193 17.0128 3.90281L15.415 7.15659C14.9881 7.28166 14.5461 7.44876 14.076 7.6342C12.2863 8.34361 9.84975 9.27511 5.41219 8.74575C5.62889 5.07689 8.67459 2.15625 12.3974 2.15625ZM6.46875 12.9321V11.0174C10.653 11.2934 13.1456 10.323 14.8695 9.63951C16.9028 8.83416 17.5077 8.60344 19.4062 11.0141V12.9321C19.4062 16.4975 16.505 19.3976 12.9375 19.3976C9.36998 19.3976 6.46875 16.4975 6.46875 12.9321ZM12.9375 21.5539C13.6825 21.5539 14.4027 21.4482 15.0937 21.2692V22.1889L14.8814 22.4013L13.4205 21.6703C13.3968 21.6584 13.3709 21.6606 13.3472 21.6498C13.2793 21.6218 13.2092 21.6078 13.137 21.5927C13.069 21.5797 13.0054 21.5679 12.9386 21.5679C12.8707 21.5679 12.8081 21.5808 12.7402 21.5927C12.668 21.6078 12.5979 21.6207 12.53 21.6498C12.5062 21.6606 12.4804 21.6584 12.4567 21.6703L10.9958 22.4013L10.7812 22.1889V21.2692C11.4723 21.4493 12.1925 21.5539 12.9375 21.5539ZM66.8438 32.3437H25.875V28.0312C30.6306 28.0312 34.5 24.1619 34.5 19.4062C34.5 17.623 33.0488 16.1719 31.2656 16.1719C29.4824 16.1719 28.0312 17.623 28.0312 19.4062C28.0312 20.5954 27.0642 21.5625 25.875 21.5625V2.15625H66.8438V32.3437Z" fill="#147987"/>
<path d="M6.46875 33.4219V28.0312C6.46875 27.435 5.98683 26.9531 5.39062 26.9531C4.79442 26.9531 4.3125 27.435 4.3125 28.0312V33.4219C4.3125 34.0181 4.79442 34.5 5.39062 34.5C5.98683 34.5 6.46875 34.0181 6.46875 33.4219Z" fill="#147987"/>
<path d="M30.1875 60.3772H28.0625C28.0507 60.3772 28.042 60.3707 28.0312 60.3707C25.6529 60.3707 23.7188 62.3048 23.7188 64.6821V67.9219C23.7188 68.5181 24.2007 69 24.7969 69H44.2031C44.7993 69 45.2812 68.5181 45.2812 67.9219V64.6821C45.2812 62.3048 43.3471 60.3707 40.9688 60.3707C40.9569 60.3707 40.9483 60.3772 40.9375 60.3772H38.8125V59.6397C38.8125 59.5179 38.7812 59.4058 38.7435 59.2969H44.2031C44.7993 59.2969 45.2812 58.815 45.2812 58.2188V47.4828C45.2812 41.538 40.4448 36.7015 34.5 36.7015C28.5552 36.7015 23.7188 41.538 23.7188 47.4828V58.2188C23.7188 58.815 24.2007 59.2969 24.7969 59.2969H30.2565C30.2188 59.4068 30.1875 59.5179 30.1875 59.6397V60.3772ZM43.125 64.6821V66.8438H25.875V64.6821C25.875 63.5005 26.8313 62.541 28.0097 62.5291C28.0172 62.5291 28.0237 62.5334 28.0312 62.5334H31.1136L34.1582 63.5479C34.1604 63.549 34.1625 63.5479 34.1636 63.549C34.2714 63.5835 34.3836 63.604 34.5 63.604C34.6164 63.604 34.7286 63.5835 34.8364 63.549C34.8385 63.5479 34.8396 63.549 34.8418 63.5479L37.8864 62.5334H40.9688C40.9763 62.5334 40.9828 62.5291 40.9903 62.5291C42.1687 62.541 43.125 63.5005 43.125 64.6821ZM34.5 38.8578C39.2556 38.8578 43.125 42.7272 43.125 47.4828V57.1406H25.875V47.4828C25.875 42.7272 29.7444 38.8578 34.5 38.8578ZM36.7252 59.2969C36.6875 59.4068 36.6562 59.5179 36.6562 59.6397V60.6704L34.5 61.3895L32.3438 60.6704V59.6397C32.3438 59.5179 32.3125 59.4058 32.2747 59.2969H36.7252Z" fill="#147987"/>
<path d="M39.8885 23.7177C38.1052 23.7177 36.6541 25.1688 36.6541 26.952C36.6541 28.7353 38.1052 30.1864 39.8885 30.1864H46.3551C47.7588 30.1864 48.9436 29.2829 49.39 28.0312H58.2187C58.8149 28.0312 59.2969 27.5493 59.2969 26.9531V20.4855H63.6094C64.2056 20.4855 64.6875 20.0035 64.6875 19.4073V15.0937C64.6875 14.4975 64.2056 14.0156 63.6094 14.0156H52.8281C52.2319 14.0156 51.75 14.4975 51.75 15.0937V16.173H48.8099L44.1999 13.4065V10.7812H46.3551C48.1383 10.7812 49.5894 9.33009 49.5894 7.54687C49.5894 5.76366 48.1383 4.3125 46.3551 4.3125H39.8885C38.1052 4.3125 36.6541 5.76366 36.6541 7.54687C36.6541 9.33009 38.1052 10.7812 39.8885 10.7812H42.0436V13.4065L37.177 16.3271C36.8525 16.5223 36.6541 16.8727 36.6541 17.2511C36.6541 17.6295 36.8535 17.981 37.177 18.175L42.0436 21.0957V23.7177H39.8885ZM39.8885 6.46875H46.3551C46.9502 6.46875 47.4332 6.95175 47.4332 7.54687C47.4332 8.142 46.9502 8.625 46.3551 8.625H39.8885C39.2933 8.625 38.8103 8.142 38.8103 7.54687C38.8103 6.95175 39.2933 6.46875 39.8885 6.46875ZM39.8885 25.8739H46.3551C46.9502 25.8739 47.4332 26.3569 47.4332 26.952C47.4332 27.5472 46.9502 28.0302 46.3551 28.0302H39.8885C39.2933 28.0302 38.8103 27.5472 38.8103 26.952C38.8103 26.3569 39.2933 25.8739 39.8885 25.8739ZM53.9062 16.1719H62.5312V18.3292H53.9062V16.1719ZM43.1218 15.2738L46.4165 17.2511L43.1218 19.2284L39.827 17.2511L43.1218 15.2738ZM44.1999 21.0957L48.8099 18.3292H51.75V19.4073C51.75 20.0035 52.2319 20.4855 52.8281 20.4855H57.1406V25.875H49.3911C48.9447 24.6222 47.7588 23.7177 46.3551 23.7177H44.1999V21.0957Z" fill="#147987"/>
</svg>
