<svg width="12" height="12" viewBox="0 0 12 12" fill="none" xmlns="http://www.w3.org/2000/svg">
<path d="M10.424 7.87663C9.73008 7.87663 9.04878 7.76172 8.40316 7.53581C8.08681 7.42156 7.6979 7.52638 7.50482 7.73634L6.2305 8.75491C4.75265 7.91963 3.84232 6.95606 3.06422 5.40303L3.99789 4.08891C4.24047 3.83241 4.32747 3.45772 4.22323 3.10616C4.00896 2.41897 3.90011 1.69794 3.90011 0.962937C3.90014 0.431969 3.49217 0 2.99073 0H0.909411C0.40797 0 0 0.431969 0 0.962906C0 7.04884 4.67612 12 10.424 12C10.9254 12 11.3334 11.568 11.3334 11.0371V8.8395C11.3333 8.30859 10.9254 7.87663 10.424 7.87663Z" fill="white"/>
</svg>
