<svg width="70" height="69" viewBox="0 0 70 69" fill="none" xmlns="http://www.w3.org/2000/svg">
<path d="M9.57257 0.306944C8.28342 0.687233 7.54285 1.69228 6.55542 4.40863C5.952 6.1471 5.568 6.90768 5.29371 6.79902C5.10171 6.74469 4.19657 6.63604 3.264 6.58171C1.78286 6.50022 1.48114 6.55455 0.795428 7.15215C0.137143 7.72258 0 8.04854 0 9.10792C0 10.7377 0.959999 11.6885 2.60571 11.6885H3.67543L2.60571 13.6442C0.822857 16.9853 0.685714 17.8002 0.685714 24.8628V31.1647L1.39886 31.8166C2.00228 32.387 2.35886 32.4685 4.032 32.4685C5.78742 32.4685 6.00685 32.4142 6.61028 31.708C7.18628 31.0289 7.26857 30.6757 7.26857 28.7743V26.6284H27.5383L27.7028 27.4976C28.0046 29.1003 28.992 29.888 30.72 29.888H31.7074L31.1314 30.7029C30.4457 31.6265 29.1017 34.5873 28.8274 35.6467L28.6628 36.4072H23.0948C20.0503 36.4072 17.1154 36.5431 16.5668 36.6789C15.1131 37.0863 14.3451 38.0642 13.4126 40.8349C12.8091 42.6005 12.4251 43.3068 12.1783 43.1981C11.9588 43.1438 11.0263 43.0351 10.0937 42.9808C8.47542 42.8993 8.31085 42.9265 7.54285 43.6871C5.86971 45.3712 6.80228 47.7616 9.27085 48.0604L10.5326 48.2234L9.57257 49.7174C7.78971 52.5424 7.54285 53.8462 7.54285 61.0989C7.54285 67.1835 7.57028 67.5638 8.09142 68.1342C8.80457 68.8948 9.68228 69.1121 11.4377 68.9491C13.5771 68.7318 14.1257 67.9712 14.1257 65.1734V63.0275H41.5543V65.1734C41.5543 67.0748 41.6365 67.428 42.2125 68.107C42.816 68.8133 43.0354 68.8676 44.8457 68.8676C46.656 68.8676 46.8754 68.8133 47.4788 68.107C48.1371 67.3465 48.1371 67.265 48.1371 61.8051C48.1371 56.4811 48.1097 56.2638 47.5885 56.1008C46.5188 55.7748 46.2171 56.3996 46.2171 58.8443C46.2171 60.9359 46.1623 61.126 45.6685 61.126C45.2023 61.126 45.12 60.9359 45.12 59.6864C45.12 56.97 43.3645 55.4489 40.6491 55.8291C38.0434 56.1551 35.3554 58.0837 34.4503 60.2568L34.0937 61.126H27.8126C21.9154 61.126 21.5588 61.0989 21.3943 60.6099C21.0651 59.5777 19.5566 57.8121 18.3223 57.0515C16.6217 55.965 14.4548 55.5032 13.0834 55.9106C11.3828 56.4267 10.752 57.3231 10.6148 59.3604C10.5051 60.9087 10.4229 61.126 9.95656 61.126C9.40799 61.126 9.40799 60.9902 9.51771 57.6491C9.59999 54.471 9.68228 54.0635 10.4777 52.3794C10.9714 51.3743 11.7394 49.989 12.2057 49.3099L13.056 48.0875L27.9223 48.1419L42.7885 48.2234L44.1051 50.3964C45.4765 52.651 46.2171 53.1128 46.848 52.1077C47.1771 51.6188 47.0125 51.2113 45.8057 49.2284L45.0925 48.0875H46.2171C47.6708 48.0875 48.96 46.9467 48.96 45.67V44.8279L55.7622 44.8823L62.5371 44.9637L62.6194 47.1911C62.7017 49.3099 62.7291 49.4457 63.552 50.1248C64.3474 50.8039 64.5942 50.8582 66.1851 50.7496C67.7211 50.6409 68.0502 50.5323 68.6262 49.8532L69.312 49.0926L69.2022 42.5462C69.0651 35.2935 68.9279 34.5058 67.2 31.6808C66.6788 30.8116 66.24 30.051 66.24 29.9967C66.24 29.9423 66.6514 29.888 67.1451 29.888C67.6114 29.888 68.4068 29.6435 68.9005 29.3447C70.5462 28.3668 70.2994 25.7591 68.4617 24.9986C67.6388 24.6726 65.3897 24.7269 64.5942 25.0801C64.2377 25.243 64.0182 24.8084 63.3874 22.907C61.824 18.099 62.0982 18.2077 50.1942 18.2077H41.0057V17.5286C41.0057 17.1755 40.4023 15.7086 39.6617 14.269L38.3177 11.6885H39.3874C41.0057 11.6885 41.9657 10.7377 41.9657 9.10792C41.9657 8.04854 41.8285 7.72258 41.1703 7.15215C40.4845 6.55455 40.1828 6.50022 38.7017 6.58171C37.7691 6.63604 36.864 6.74469 36.672 6.79902C36.3977 6.90768 36.0137 6.1471 35.4103 4.40863C34.3954 1.61079 33.6823 0.687233 32.256 0.27978C30.7748 -0.127672 18.9806 -0.0733455 18.5691 0.334107C18.0754 0.82305 18.1851 1.58363 18.7611 1.90959C19.0903 2.07257 21.7783 2.18123 25.5634 2.18123C30.2263 2.18123 31.9817 2.26272 32.3383 2.53435C32.8045 2.88748 35.0263 9.21657 34.7794 9.5697C34.7245 9.70552 28.4434 9.78701 20.8183 9.78701H6.96685L7.13142 9.16225C8.50285 4.73459 9.27085 2.69733 9.73714 2.45286C10.0114 2.31704 10.6971 2.18123 11.2457 2.18123C13.0011 2.18123 13.8788 1.2305 12.9737 0.334107C12.5897 -0.046182 10.8343 -0.046182 9.57257 0.306944ZM4.47085 9.16225C4.55314 9.70552 4.44343 9.78701 3.51085 9.78701C2.22171 9.78701 1.64571 9.43388 1.86514 8.83628C2.00228 8.51032 2.33143 8.42883 3.20914 8.48316C4.19657 8.53749 4.416 8.6733 4.47085 9.16225ZM39.744 8.59181C39.9908 8.6733 40.1828 8.91777 40.1828 9.10792C40.1828 9.54253 39.552 9.78701 38.3725 9.78701C37.6594 9.78701 37.44 9.67835 37.44 9.29806C37.44 9.02643 37.5223 8.70047 37.632 8.61898C37.8514 8.3745 39.168 8.3745 39.744 8.59181ZM36.6171 12.9108C37.4674 14.1332 38.592 16.3877 38.9485 17.5829C39.0857 18.0719 39.0034 18.2077 38.6194 18.2077C38.3451 18.2077 37.6594 18.425 37.1108 18.6966C36.5623 18.9954 35.3005 19.2942 34.3131 19.3757C31.3234 19.6474 28.5806 21.4673 27.5931 23.8577L27.2366 24.7269H14.7291L14.3726 23.8577C13.44 21.6303 10.6149 19.6474 7.95428 19.3757C5.34857 19.1041 3.70285 20.5981 3.70285 23.2873C3.70285 24.5368 3.62057 24.7269 3.15428 24.7269C2.63314 24.7269 2.60571 24.5368 2.60571 22.0649C2.63314 18.2349 3.20914 16.3062 5.32114 12.9651L6.17142 11.6885H35.7668L36.6171 12.9108ZM60.3154 20.8969C60.7817 21.413 62.6742 26.8185 62.6742 27.6334C62.6742 27.9322 60.2331 27.9866 48.8228 27.9866C41.1977 27.9866 34.9714 27.8779 34.9714 27.7692C34.9714 27.1173 37.0011 21.2772 37.3851 20.8426C37.7691 20.4079 38.6743 20.3808 48.8228 20.3808C59.3828 20.3808 59.8765 20.4079 60.3154 20.8969ZM8.88685 21.6303C10.2583 22.0106 12.48 23.7762 12.48 24.4553C12.48 24.6183 11.1634 24.7269 9.05142 24.7269H5.62285V23.5589C5.62285 22.3637 5.97942 21.6575 6.72 21.3858C7.35085 21.1685 7.35085 21.1685 8.88685 21.6303ZM34.6971 21.5216C34.6971 21.6846 34.4777 22.4724 34.2308 23.2873L33.7645 24.7269H31.6251C30.3908 24.7269 29.4857 24.6183 29.4857 24.4553C29.4857 23.8305 31.7074 22.0106 32.9691 21.6303C34.6148 21.1413 34.6971 21.1142 34.6971 21.5216ZM5.21142 30.2955L3.92228 30.3769L2.60571 30.4584V26.6012L3.92228 26.6827L5.21142 26.7642V30.2955ZM32.064 26.7914C32.3108 26.8729 32.5028 27.1988 32.5028 27.4704C32.5028 27.9051 32.2834 27.9866 31.296 27.9866C30.0343 27.9866 29.5954 27.6878 29.8697 27.0358C30.0068 26.6284 31.2686 26.4926 32.064 26.7914ZM67.8308 26.9543C68.352 27.4704 67.6662 27.9866 66.4868 27.9866C65.3348 27.9866 64.9234 27.6334 65.4171 27.0358C65.8285 26.5469 67.3645 26.4926 67.8308 26.9543ZM64.9508 31.8438C66.7062 34.6416 67.0902 36.0269 67.2822 39.7212C67.4194 42.845 67.392 42.9265 66.8159 42.9265C66.3222 42.9265 66.24 42.7635 66.24 41.6226C66.24 39.2594 64.6491 37.4938 62.5097 37.4938C60.0411 37.4938 57.0788 39.3137 55.6525 41.7313L54.9394 42.9265H42.9805L42.2125 40.6719C41.3897 38.2 40.2925 36.869 38.8114 36.5702C38.3177 36.4887 36.3428 36.4072 34.3954 36.4072C32.448 36.4072 30.8571 36.2986 30.8571 36.1628C30.8571 35.538 31.8171 33.3921 32.832 31.7351L34.0114 29.888H63.744L64.9508 31.8438ZM39.0857 38.852C39.4423 39.0421 39.936 40.1558 40.6217 42.3289C41.1703 44.0673 41.6914 45.67 41.7463 45.833C41.856 46.1046 38.976 46.1861 27.84 46.1861H13.824L13.9886 45.5613C15.2503 41.4325 16.1554 39.0964 16.5394 38.8791C17.1703 38.4988 38.4 38.4988 39.0857 38.852ZM63.4971 39.8842C63.9085 40.2101 64.1554 40.7806 64.2377 41.6498L64.4022 42.9265H60.9188C58.9988 42.9265 57.4628 42.8178 57.4628 42.682C57.4628 42.2202 58.8891 40.7534 59.7668 40.2916C60.5622 39.8842 61.824 39.4767 62.5645 39.4224C62.7565 39.3952 63.168 39.6125 63.4971 39.8842ZM10.944 44.9909C11.1908 45.0724 11.3828 45.3984 11.3828 45.67C11.3828 46.1046 11.1634 46.1861 10.1486 46.1861C9.24342 46.1861 8.85942 46.0503 8.72228 45.7515C8.44799 45.0181 9.79199 44.5563 10.944 44.9909ZM46.6011 44.9909C46.848 45.0724 47.04 45.3169 47.04 45.507C47.04 45.9416 46.4091 46.1861 45.2297 46.1861C44.5165 46.1861 44.2971 46.0774 44.2971 45.6972C44.2971 45.4255 44.3794 45.0996 44.4891 45.0181C44.7085 44.7736 46.0251 44.7736 46.6011 44.9909ZM67.2 48.495L65.9108 48.5765L64.5942 48.658V44.8008L65.9108 44.8823L67.2 44.9637V48.495ZM16.2377 58.1652C17.088 58.4368 19.3371 60.3926 19.3371 60.8816C19.3371 61.0174 17.8011 61.126 15.9086 61.126H12.48V59.958C12.48 57.7578 13.3851 57.3231 16.2377 58.1652ZM42.1851 57.8936C43.0354 58.3554 43.2 58.6541 43.2 59.958V61.126H39.7714C37.8788 61.126 36.3428 61.0445 36.3428 60.963C36.3428 60.8816 36.5897 60.4469 36.8914 60.0395C37.6045 59.0616 38.9485 58.2195 40.3474 57.8936C40.9234 57.7578 41.4445 57.6491 41.4994 57.6219C41.5543 57.5948 41.856 57.7306 42.1851 57.8936ZM12.0686 66.6945L10.7794 66.776L9.46285 66.8575V63.0003L10.7794 63.0818L12.0686 63.1633V66.6945ZM46.2445 66.8304H43.4743V65.1191C43.4743 64.1683 43.5565 63.2991 43.6663 63.1905C43.776 63.0818 44.352 63.0275 44.9828 63.0818L46.08 63.1633L46.2445 66.8304Z" fill="#147987"/>
</svg>
