<svg width="25" height="25" viewBox="0 0 25 25" fill="none" xmlns="http://www.w3.org/2000/svg">
<path d="M12.5 0C5.63428 0 0 5.63428 0 12.5C0 19.3657 5.63428 25 12.5 25C19.3657 25 25 19.3657 25 12.5C25 5.63428 19.3657 0 12.5 0ZM12.5 2.92969C16.8182 2.92969 20.5174 5.87085 21.6792 9.81797C21.6126 9.64863 21.4859 9.50234 21.3079 9.42012C19.2894 8.48599 16.0827 7.37305 12.5 7.37305C8.91728 7.37305 5.7106 8.48599 3.69214 9.42012C3.51406 9.50239 3.38735 9.64863 3.32085 9.81797C4.48262 5.87085 8.18184 2.92969 12.5 2.92969ZM3.1189 14.3858C3.19229 14.661 3.42319 14.8797 3.7229 14.9226L5.48262 15.1672C7.72354 15.4869 9.51309 17.2765 9.83281 19.5174L10.0774 21.2771C10.1146 21.5367 10.2865 21.7397 10.5099 21.8383C6.82373 21.0476 3.86597 18.0881 3.1189 14.3858ZM12.5 14.6973C11.2884 14.6973 10.3027 13.7116 10.3027 12.5C10.3027 11.2884 11.2884 10.3027 12.5 10.3027C13.7116 10.3027 14.6973 11.2884 14.6973 12.5C14.6973 13.7116 13.7116 14.6973 12.5 14.6973ZM14.4901 21.8383C14.7135 21.7396 14.8855 21.5367 14.9226 21.2771L15.1672 19.5173C15.4869 17.2764 17.2765 15.4869 19.5174 15.1671L21.2771 14.9225C21.5768 14.8797 21.8077 14.661 21.8812 14.3858C21.134 18.0881 18.1763 21.0476 14.4901 21.8383Z" fill="#264896"/>
<path d="M12.5 11.7676C12.0959 11.7676 11.7676 12.0959 11.7676 12.5C11.7676 12.9041 12.0959 13.2324 12.5 13.2324C12.9041 13.2324 13.2324 12.9041 13.2324 12.5C13.2324 12.0959 12.9041 11.7676 12.5 11.7676Z" fill="#264896"/>
</svg>
