<svg width="69" height="60" viewBox="0 0 69 60" fill="none" xmlns="http://www.w3.org/2000/svg">
<path d="M65.5079 11.1891H59.9551C59.4121 11.1891 58.9721 11.6417 58.9721 12.2C58.9721 12.7582 59.4121 13.2108 59.9551 13.2108H65.5079C66.3496 13.2108 67.0343 13.9149 67.0343 14.7804V27.6249C67.0343 31.9097 63.6444 35.3955 59.4778 35.3955H57.2605V33.7297C57.2605 32.8653 56.662 32.1418 55.8688 31.9746C55.7555 31.9507 55.6382 31.9381 55.5182 31.9381H54.9671V27.0088C54.9671 26.1369 54.2774 25.4277 53.4294 25.4277H48.9032C48.0554 25.4277 47.3656 26.1369 47.3656 27.0088V31.9381H46.8144C46.6944 31.9381 46.5771 31.9507 46.4638 31.9746C45.6705 32.1418 45.0722 32.8653 45.0722 33.7297V35.3955H23.9281V33.7297C23.9281 32.8653 23.3297 32.1418 22.5365 31.9746C22.4232 31.9507 22.3059 31.9381 22.1858 31.9381H21.6346V27.0088C21.6346 26.1369 20.9449 25.4277 20.0971 25.4277H15.5709C14.723 25.4277 14.0333 26.1369 14.0333 27.0088V31.9381H13.4821C13.362 31.9381 13.2448 31.9507 13.1315 31.9746C12.3382 32.1418 11.7399 32.8653 11.7399 33.7297V35.3955H9.52242C5.35573 35.3955 1.96596 31.9096 1.96596 27.6249V14.7804C1.96596 13.9149 2.65071 13.2108 3.49232 13.2108H53.7221C54.2651 13.2108 54.7051 12.7582 54.7051 12.2C54.7051 11.6417 54.2651 11.1891 53.7221 11.1891H48.9385V6.69839C48.9385 3.62248 46.505 1.12019 43.5139 1.12019H42.6304C42.391 0.466894 41.7785 0 41.0605 0H27.9397C27.2216 0 26.6093 0.466894 26.3699 1.12019H25.4864C22.4953 1.12019 20.0619 3.62262 20.0619 6.69839V11.1892H3.49219C1.56665 11.1891 0 12.8002 0 14.7804V43.2212C0 43.7794 0.440145 44.232 0.982982 44.232C1.52582 44.232 1.96596 43.7794 1.96596 43.2212V33.5738C3.70795 35.9083 6.44639 37.4172 9.52242 37.4172H11.7397V38.1879C11.7397 39.1757 12.5214 39.9795 13.482 39.9795H14.0332V42.5816C14.0332 44.7368 15.7381 46.49 17.8338 46.49C19.9296 46.49 21.6345 44.7368 21.6345 42.5816V39.9795H22.1857C23.1464 39.9795 23.9281 39.1757 23.9281 38.1879V37.4172H45.0722V38.1879C45.0722 39.1757 45.8538 39.9795 46.8144 39.9795H47.3656V42.5816C47.3656 44.7368 49.0707 46.49 51.1663 46.49C53.2619 46.49 54.967 44.7368 54.967 42.5816V39.9795H55.518C56.4788 39.9795 57.2604 39.1757 57.2604 38.1879V37.4172H59.4777C62.5537 37.4172 65.2922 35.9083 67.0342 33.5738V56.4088C67.0342 57.2743 66.3494 57.9785 65.5078 57.9785H3.49219C2.65058 57.9785 1.96583 57.2743 1.96583 56.4088V49.6308C1.96583 49.0725 1.52568 48.6199 0.982848 48.6199C0.440011 48.6199 0 49.0725 0 49.6308V56.4088C0 58.3891 1.56665 60 3.49219 60H65.5078C67.4335 60 69 58.3889 69 56.4088V14.7804C69.0001 12.8002 67.4336 11.1891 65.5079 11.1891ZM43.5139 3.14173C45.421 3.14173 46.9727 4.73727 46.9727 6.69839V11.1892H45.2688V6.69839C45.2688 5.70321 44.4815 4.89373 43.514 4.89373H42.7393V3.14173H43.5139ZM28.227 2.02127H40.7733V6.00809H28.227V2.02127ZM26.3719 6.91527C26.6128 7.56566 27.2238 8.02978 27.9397 8.02978H41.0603C41.7762 8.02978 42.3872 7.56566 42.6281 6.91527H43.3026V11.1891H25.6973V6.91527H26.3719ZM22.0278 6.69839C22.0278 4.73727 23.5793 3.14173 25.4864 3.14173H26.2612V4.89373H25.4864C24.5188 4.89373 23.7315 5.70334 23.7315 6.69839V11.1892H22.0278V6.69839ZM19.6687 27.4492V31.9381H15.999V27.4492H19.6687ZM19.6687 42.5816C19.6687 43.622 18.8457 44.4685 17.8338 44.4685C16.8222 44.4685 15.999 43.6221 15.999 42.5816V39.9795H19.6687V42.5816ZM21.9621 37.9579H13.7054V33.9597H21.9621V37.9579ZM49.3316 27.4492H53.0013V31.9381H49.3316V27.4492ZM53.0011 42.5816C53.0011 43.622 52.1781 44.4685 51.1663 44.4685C50.1546 44.4685 49.3315 43.6221 49.3315 42.5816V39.9795H53.0011V42.5816ZM55.2947 37.9579H47.038V33.9597H55.2947V37.9579Z" fill="#147987"/>
</svg>
